<mxfile host="app.diagrams.net" modified="2021-07-30T06:10:46.921Z" agent="5.0 (Windows NT 10.0; Win64; x64) AppleWebKit/537.36 (KHTML, like Gecko) Chrome/92.0.4515.107 Safari/537.36" etag="7SAPbSVgU8eWMX3HFnNp" version="14.9.3" type="github">
  <diagram id="mumns-XFadvvk_fJM0Ih" name="Page-1">
    <mxGraphModel dx="2062" dy="1122" grid="1" gridSize="10" guides="1" tooltips="1" connect="1" arrows="1" fold="1" page="1" pageScale="1" pageWidth="827" pageHeight="1169" math="0" shadow="0">
      <root>
        <mxCell id="0" />
        <mxCell id="1" parent="0" />
        <mxCell id="71oODd7R5xWveKUzjTrZ-3" value="" style="edgeStyle=orthogonalEdgeStyle;rounded=0;orthogonalLoop=1;jettySize=auto;html=1;" edge="1" parent="1" source="71oODd7R5xWveKUzjTrZ-1" target="71oODd7R5xWveKUzjTrZ-2">
          <mxGeometry relative="1" as="geometry" />
        </mxCell>
        <mxCell id="71oODd7R5xWveKUzjTrZ-1" value="管理台收到任务" style="rounded=1;whiteSpace=wrap;html=1;" vertex="1" parent="1">
          <mxGeometry x="40" y="410" width="100" height="60" as="geometry" />
        </mxCell>
        <mxCell id="71oODd7R5xWveKUzjTrZ-5" value="" style="edgeStyle=orthogonalEdgeStyle;rounded=0;orthogonalLoop=1;jettySize=auto;html=1;" edge="1" parent="1" source="71oODd7R5xWveKUzjTrZ-2" target="71oODd7R5xWveKUzjTrZ-4">
          <mxGeometry relative="1" as="geometry" />
        </mxCell>
        <mxCell id="71oODd7R5xWveKUzjTrZ-2" value="推荐池，可推荐" style="rounded=1;whiteSpace=wrap;html=1;" vertex="1" parent="1">
          <mxGeometry x="220" y="410" width="100" height="60" as="geometry" />
        </mxCell>
        <mxCell id="71oODd7R5xWveKUzjTrZ-7" value="" style="edgeStyle=orthogonalEdgeStyle;rounded=0;orthogonalLoop=1;jettySize=auto;html=1;" edge="1" parent="1" source="71oODd7R5xWveKUzjTrZ-4" target="71oODd7R5xWveKUzjTrZ-6">
          <mxGeometry relative="1" as="geometry" />
        </mxCell>
        <mxCell id="71oODd7R5xWveKUzjTrZ-4" value="等待第一次曝光" style="rounded=1;whiteSpace=wrap;html=1;" vertex="1" parent="1">
          <mxGeometry x="390" y="410" width="100" height="60" as="geometry" />
        </mxCell>
        <mxCell id="71oODd7R5xWveKUzjTrZ-6" value="曝光达到阈值，投放成功" style="whiteSpace=wrap;html=1;rounded=1;" vertex="1" parent="1">
          <mxGeometry x="560" y="410" width="120" height="60" as="geometry" />
        </mxCell>
      </root>
    </mxGraphModel>
  </diagram>
</mxfile>
